<?xml version="1.0" encoding="UTF-8"?>
<svg width="169px" height="90px" viewBox="0 0 169 90" version="1.1" xmlns="http://www.w3.org/2000/svg" xmlns:xlink="http://www.w3.org/1999/xlink">
    <!-- Generator: Sketch 49.1 (51147) - http://www.bohemiancoding.com/sketch -->
    <title>alcor_logo</title>
    <desc>Created with Sketch.</desc>
    <defs></defs>
    <g id="Page-1" stroke="none" stroke-width="1" fill="none" fill-rule="evenodd">
        <g id="Pre-fin-Copy-2" transform="translate(-100.000000, -5227.000000)" fill="#747474" fill-rule="nonzero">
            <g id="alcor_logo" transform="translate(100.000000, 5227.000000)">
                <path d="M85.5756303,33.0576369 C85.1764706,31.8472622 84.697479,31 83.539916,31 C82.4222689,31 81.9033613,31.8876081 81.5441176,33.0576369 L74.0798319,56.9020173 C74.039916,57.0230548 74,57.3458213 74,57.4668588 C74,58.3948127 74.7184874,59 75.5966387,59 C76.1155462,59 76.8340336,58.556196 77.0336134,57.8299712 L78.6302521,52.4639769 L88.289916,52.4639769 L89.9264706,57.8299712 C90.1260504,58.5158501 90.8445378,59 91.4033613,59 C92.3214286,59 93,58.3948127 93,57.4668588 C93,57.3054755 92.960084,56.9827089 92.9201681,56.9020173 L85.5756303,33.0576369 Z M79.5882353,49.4783862 L83.539916,36.4063401 L87.4915966,49.4783862 L79.5882353,49.4783862 Z" id="Shape"></path>
                <path d="M107.515759,55.1184211 L98.0487106,55.1184211 L98.0487106,32.5 C98.0487106,31.7105263 97.3667622,31 96.5243553,31 C95.6819484,31 95,31.7105263 95,32.5 L95,56.3026316 C95,57.25 95.8022923,58 96.7249284,58 L107.555874,58 C108.358166,58 109,57.3684211 109,56.5394737 C108.959885,55.75 108.277937,55.1184211 107.515759,55.1184211 Z" id="Shape"></path>
                <path d="M119.59375,33.8282828 C121.039062,33.8282828 122.210938,34.2323232 123.34375,35.040404 C123.929688,35.4444444 124.164063,35.6868687 124.671875,35.6868687 C125.453125,35.6868687 126,35.0808081 126,34.3131313 C126,32.4949495 122.796875,31 119.398438,31 C113.65625,31 111,34.9191919 111,40.8585859 L111,49.1414141 C111,55.0808081 113.65625,59 119.398438,59 C122.796875,59 126,57.5050505 126,55.6868687 C126,54.959596 125.453125,54.3131313 124.671875,54.3131313 C124.164062,54.3131313 123.96875,54.5959596 123.34375,54.959596 C122.210938,55.7676768 121.078125,56.1717172 119.59375,56.1717172 C115.375,56.1717172 113.96875,53.4646465 113.96875,49.1414141 L113.96875,40.8585859 C113.96875,36.5353535 115.375,33.8282828 119.59375,33.8282828 Z" id="Shape"></path>
                <path d="M138.5,31 C132.395455,31 130,35.4783862 130,40.8443804 L130,49.1152738 C130,54.6023055 132.859091,59 138.5,59 C144.140909,59 147,54.6023055 147,49.1152738 L147,40.8443804 C147,35.4783862 144.604545,31 138.5,31 Z M144.025,49.1152738 C144.025,53.1902017 142.286364,55.9740634 138.461364,55.9740634 C134.636364,55.9740634 132.897727,53.1498559 132.897727,49.1152738 L132.897727,40.8443804 C132.897727,36.7694524 134.365909,34.0259366 138.461364,34.0259366 C142.518182,34.0259366 144.025,36.7694524 144.025,40.8443804 L144.025,49.1152738 Z" id="Shape"></path>
                <path d="M162.803738,45.7236842 C166.418224,45.0131579 168.682243,42.5657895 168.682243,38.5394737 C168.682243,34.7894737 166.656542,31 160.380841,31 L153.747664,31 C152.794393,31 152,31.8289474 152,32.8157895 L152,56.4210526 C152,57.2894737 152.675234,58 153.469626,58 C154.303738,58 155.018692,57.25 155.018692,56.4210526 L155.018692,45.9210526 L159.38785,45.9210526 L166.100467,57.25 C166.378505,57.6842105 166.815421,57.9605263 167.371495,57.9605263 C167.96729,57.9605263 169,57.3289474 169,56.5394737 C169,56.2236842 168.920561,55.9078947 168.801402,55.6710526 L162.803738,45.7236842 Z M155.058411,43 L155.058411,33.9210526 L160.221963,33.9210526 C164.630841,33.9210526 165.623832,36.2894737 165.623832,38.5394737 C165.623832,41.4605263 163.796729,43 160.46028,43 L155.058411,43 Z" id="Shape"></path>
                <path d="M59.5841937,20.995521 C61.5728143,20.8748954 63.1150099,19.1861381 62.9932576,17.2159212 C62.8715053,15.2457044 61.1669734,13.7177811 59.1783527,13.8384066 C57.3520684,13.9590321 55.891041,15.4065384 55.7692887,17.1757127 L38.6833848,21.397606 L33.650957,6.48024971 C34.5843912,5.79670508 35.1931526,4.63065836 35.1119844,3.38419462 C34.9902322,1.41397775 33.2857002,-0.113945542 31.2970795,0.0066799813 C29.3084589,0.127305504 27.7662633,1.81606282 27.8880156,3.7862797 C27.9285997,4.71107537 28.3344406,5.51524552 28.9837861,6.11837314 L18.7971783,26.303044 L6.74370213,29.318682 C6.05377251,28.2330523 4.83624967,27.5495077 3.45639044,27.6299247 C1.46776979,27.7505502 -0.0744258108,29.4393076 0.0473264738,31.4095244 C0.169078758,33.3797413 1.87361074,34.9076646 3.86223139,34.7870391 C4.79566557,34.7468306 5.60734747,34.3447455 6.21610889,33.7014094 L13.2777414,37.1995495 L4.38982463,54.8108759 C4.06515187,54.7304588 3.74047911,54.7304588 3.41580635,54.7304588 C1.4271857,54.8510844 -0.115009906,56.5398417 0.00674237894,58.5100586 C0.128494664,60.4802754 1.83302665,62.0081987 3.8216473,61.8875732 C5.81026795,61.7669477 7.35246355,60.0781904 7.23071127,58.1079735 C7.19012717,57.2635948 6.82487032,56.4996332 6.29727708,55.9367141 L15.2663621,38.2047622 L27.8880156,44.4772894 C27.8474315,44.7185404 27.8474315,44.9597915 27.8474315,45.241251 C27.9691837,47.2114679 29.6737157,48.7393912 31.6623364,48.6187657 C31.946425,48.6187657 32.1899296,48.5383487 32.4334342,48.4981402 L56.4592183,84.2032949 C55.9316251,84.8868396 55.6475364,85.7312182 55.6881205,86.6158054 C55.8098728,88.5860223 57.5144048,90.1139455 59.5030255,89.99332 C61.4916461,89.8726945 63.0338417,88.1839372 62.9120894,86.2137203 C62.7903371,84.2837119 61.1669734,82.8362057 59.2595209,82.8362057 L52.1978884,61.8071562 C53.2530749,61.1236116 53.9430045,59.9173563 53.8618363,58.5904756 C53.740084,56.6202587 52.035552,55.0923354 50.0469314,55.2129609 C50.0063473,55.2129609 50.0063473,55.2129609 49.9657632,55.2129609 L39.3733144,23.4884484 L56.296882,19.3067636 C56.9868116,20.3923933 58.2043344,21.075938 59.5841937,20.995521 Z M30.9724068,7.16379434 C31.1753272,7.20400284 31.3376636,7.20400284 31.5405841,7.20400284 L36.4918437,21.9605251 L34.5843912,22.4430272 C33.8944616,21.3573975 32.6769388,20.6738529 31.2970795,20.7542699 C29.4707953,20.8748954 28.0097678,22.3224017 27.8880156,24.091576 L21.6380649,25.6194993 L30.9724068,7.16379434 Z M14.2923438,35.2293327 L7.23071127,31.7311925 C7.23071127,31.6507755 7.27129536,31.5301499 7.27129536,31.4497329 L17.4984873,28.916597 L14.2923438,35.2293327 Z M47.9771425,56.0171311 C47.1654606,56.7408842 46.6378674,57.7863054 46.7190356,58.9523521 C46.8407879,60.761735 48.3018153,62.2092413 50.0875155,62.3298668 L55.6475364,78.8957719 L34.3408866,47.2114679 C34.8684799,46.5279233 35.1525685,45.6835446 35.1119844,44.7989575 C34.9902322,42.8287406 33.2857002,41.3008173 31.2970795,41.4214428 C30.3636453,41.4616513 29.5519634,41.8637364 28.943202,42.466864 L16.2809644,36.2345453 L20.3393739,28.2330523 L28.4561929,26.2226269 C29.1461225,27.3082567 30.3636453,27.9918013 31.7435046,27.9113843 C33.5697888,27.7907587 35.0308163,26.3432525 35.1525685,24.5740781 L37.2629415,24.0513675 L47.9771425,56.0171311 Z" id="Shape"></path>
            </g>
        </g>
    </g>
</svg>