<?xml version="1.0" encoding="UTF-8"?>
<svg width="67px" height="67px" viewBox="0 0 67 67" version="1.1" xmlns="http://www.w3.org/2000/svg" xmlns:xlink="http://www.w3.org/1999/xlink">
    <!-- Generator: Sketch 49.1 (51147) - http://www.bohemiancoding.com/sketch -->
    <title>Group 18</title>
    <desc>Created with Sketch.</desc>
    <defs>
        <path d="M24,29 C21.2385763,29 19,26.7614237 19,24 C19,21.2385763 21.2385763,19 24,19 C26.7614237,19 29,21.2385763 29,24 C29,26.7614237 26.7614237,29 24,29 Z" id="path-1"></path>
        <filter x="-100.0%" y="-80.0%" width="300.0%" height="300.0%" filterUnits="objectBoundingBox" id="filter-2">
            <feOffset dx="0" dy="2" in="SourceAlpha" result="shadowOffsetOuter1"></feOffset>
            <feGaussianBlur stdDeviation="3" in="shadowOffsetOuter1" result="shadowBlurOuter1"></feGaussianBlur>
            <feColorMatrix values="0 0 0 0 0.0941176471   0 0 0 0 0.435294118   0 0 0 0 0.941176471  0 0 0 0.7 0" type="matrix" in="shadowBlurOuter1"></feColorMatrix>
        </filter>
    </defs>
    <g id="Page-1" stroke="none" stroke-width="1" fill="none" fill-rule="evenodd">
        <g id="*-Про-асоціацію" transform="translate(-80.000000, -2473.000000)">
            <g id="Group-18" transform="translate(80.000000, 2473.000000)">
                <rect id="Rectangle-6" fill="#FFFFFF" x="0" y="0" width="67" height="67"></rect>
                <rect id="Rectangle-13" fill="#186FF0" x="14" y="19" width="2" height="12"></rect>
                <rect id="Rectangle-13" fill="#186FF0" transform="translate(43.000000, 15.000000) rotate(-270.000000) translate(-43.000000, -15.000000) " x="42" y="9" width="2" height="12"></rect>
                <rect id="Rectangle-13" fill="#186FF0" transform="translate(34.000000, 43.000000) rotate(-180.000000) translate(-34.000000, -43.000000) " x="33" y="37" width="2" height="12"></rect>
                <rect id="Rectangle-13" fill="#186FF0" transform="translate(34.000000, 24.000000) rotate(-180.000000) translate(-34.000000, -24.000000) " x="33" y="18" width="2" height="12"></rect>
                <g id="Group-13" transform="translate(10.000000, 10.000000)" fill-rule="nonzero">
                    <g id="Oval-3">
                        <use fill="black" fill-opacity="1" filter="url(#filter-2)" xlink:href="#path-1"></use>
                        <use fill="#186FF0" fill-rule="evenodd" xlink:href="#path-1"></use>
                    </g>
                    <path d="M42,29 C39.2385763,29 37,26.7614237 37,24 C37,21.2385763 39.2385763,19 42,19 C44.7614237,19 47,21.2385763 47,24 C47,26.7614237 44.7614237,29 42,29 Z M42,26.5 C43.3807119,26.5 44.5,25.3807119 44.5,24 C44.5,22.6192881 43.3807119,21.5 42,21.5 C40.6192881,21.5 39.5,22.6192881 39.5,24 C39.5,25.3807119 40.6192881,26.5 42,26.5 Z" id="Oval-3-Copy-3" fill="#E5E8EB"></path>
                    <path d="M5,29 C2.23857625,29 0,26.7614237 0,24 C0,21.2385763 2.23857625,19 5,19 C7.76142375,19 10,21.2385763 10,24 C10,26.7614237 7.76142375,29 5,29 Z M5,26.5 C6.38071187,26.5 7.5,25.3807119 7.5,24 C7.5,22.6192881 6.38071187,21.5 5,21.5 C3.61928813,21.5 2.5,22.6192881 2.5,24 C2.5,25.3807119 3.61928813,26.5 5,26.5 Z" id="Oval-3-Copy-6" fill="#E5E8EB"></path>
                    <path d="M24,10 C21.2385763,10 19,7.76142375 19,5 C19,2.23857625 21.2385763,0 24,0 C26.7614237,0 29,2.23857625 29,5 C29,7.76142375 26.7614237,10 24,10 Z M24,7.5 C25.3807119,7.5 26.5,6.38071187 26.5,5 C26.5,3.61928813 25.3807119,2.5 24,2.5 C22.6192881,2.5 21.5,3.61928813 21.5,5 C21.5,6.38071187 22.6192881,7.5 24,7.5 Z" id="Oval-3-Copy" fill="#E5E8EB"></path>
                    <path d="M42,10 C39.2385763,10 37,7.76142375 37,5 C37,2.23857625 39.2385763,0 42,0 C44.7614237,0 47,2.23857625 47,5 C47,7.76142375 44.7614237,10 42,10 Z M42,7.5 C43.3807119,7.5 44.5,6.38071187 44.5,5 C44.5,3.61928813 43.3807119,2.5 42,2.5 C40.6192881,2.5 39.5,3.61928813 39.5,5 C39.5,6.38071187 40.6192881,7.5 42,7.5 Z" id="Oval-3-Copy-4" fill="#E5E8EB"></path>
                    <path d="M5,10 C2.23857625,10 0,7.76142375 0,5 C0,2.23857625 2.23857625,0 5,0 C7.76142375,0 10,2.23857625 10,5 C10,7.76142375 7.76142375,10 5,10 Z M5,7.5 C6.38071187,7.5 7.5,6.38071187 7.5,5 C7.5,3.61928813 6.38071187,2.5 5,2.5 C3.61928813,2.5 2.5,3.61928813 2.5,5 C2.5,6.38071187 3.61928813,7.5 5,7.5 Z" id="Oval-3-Copy-7" fill="#E5E8EB"></path>
                    <path d="M24,47 C21.2385763,47 19,44.7614237 19,42 C19,39.2385763 21.2385763,37 24,37 C26.7614237,37 29,39.2385763 29,42 C29,44.7614237 26.7614237,47 24,47 Z M24,44.5 C25.3807119,44.5 26.5,43.3807119 26.5,42 C26.5,40.6192881 25.3807119,39.5 24,39.5 C22.6192881,39.5 21.5,40.6192881 21.5,42 C21.5,43.3807119 22.6192881,44.5 24,44.5 Z" id="Oval-3-Copy-2" fill="#E5E8EB"></path>
                    <path d="M42,47 C39.2385763,47 37,44.7614237 37,42 C37,39.2385763 39.2385763,37 42,37 C44.7614237,37 47,39.2385763 47,42 C47,44.7614237 44.7614237,47 42,47 Z M42,44.5 C43.3807119,44.5 44.5,43.3807119 44.5,42 C44.5,40.6192881 43.3807119,39.5 42,39.5 C40.6192881,39.5 39.5,40.6192881 39.5,42 C39.5,43.3807119 40.6192881,44.5 42,44.5 Z" id="Oval-3-Copy-5" fill="#E5E8EB"></path>
                    <path d="M5,47 C2.23857625,47 0,44.7614237 0,42 C0,39.2385763 2.23857625,37 5,37 C7.76142375,37 10,39.2385763 10,42 C10,44.7614237 7.76142375,47 5,47 Z M5,44.5 C6.38071187,44.5 7.5,43.3807119 7.5,42 C7.5,40.6192881 6.38071187,39.5 5,39.5 C3.61928813,39.5 2.5,40.6192881 2.5,42 C2.5,43.3807119 3.61928813,44.5 5,44.5 Z" id="Oval-3-Copy-8" fill="#E5E8EB"></path>
                </g>
            </g>
        </g>
    </g>
</svg>