<svg width="16px" height="16px" viewBox="0 0 16 16" version="1.1" xmlns="http://www.w3.org/2000/svg" xmlns:xlink="http://www.w3.org/1999/xlink">
    <g id="Page-1" stroke="none" stroke-width="1" fill="none" fill-rule="evenodd">
        <g id="Pre-fin-Copy-2" transform="translate(-582.000000, -28.000000)" fill="#FFFFFF" fill-rule="nonzero">
            <path d="M594.882674,39.437466 L598,42.5547916 L596.554792,44 L593.437466,40.8826743 C592.243274,41.7770678 590.760212,42.3068331 589.153417,42.3068331 C585.202694,42.3068331 582,39.1041394 582,35.1534165 C582,31.2026937 585.202694,28 589.153417,28 C593.104139,28 596.306833,31.2026937 596.306833,35.1534165 C596.306833,36.7602119 595.777068,38.2432741 594.882674,39.437466 Z M589.153417,40.2629998 C591.975361,40.2629998 594.263,37.9753614 594.263,35.1534165 C594.263,32.3314716 591.975361,30.0438333 589.153417,30.0438333 C586.331472,30.0438333 584.043833,32.3314716 584.043833,35.1534165 C584.043833,37.9753614 586.331472,40.2629998 589.153417,40.2629998 Z" id="Combined-Shape"></path>
        </g>
    </g>
</svg>