<?xml version="1.0" encoding="utf-8"?>
<!-- Generator: Adobe Illustrator 21.0.2, SVG Export Plug-In . SVG Version: 6.00 Build 0)  -->
<svg version="1.1" id="Layer_1" xmlns="http://www.w3.org/2000/svg" xmlns:xlink="http://www.w3.org/1999/xlink" x="0px" y="0px"
	 viewBox="0 0 667 158" style="enable-background:new 0 0 667 158;" xml:space="preserve">
<style type="text/css">
	.st0{fill:#307FE2;}
	.st1{fill:#C8C9C7;}
</style>
<g>
	<path class="st0" d="M0.2,157.7C118.3,47.7,148.7,98.5,148.7,98.5L89.6,0.2L0.2,157.7z"/>
	<g>
		<path class="st1" d="M362.8,147.8c-0.6,3.4-2,6-4.2,7.8c-2.1,1.8-4.8,2.6-7.9,2.6c-3.5,0-6.5-1.2-8.9-3.6
			c-1.5-1.5-2.4-3.4-2.9-5.7c-0.2-1.4-0.4-3.8-0.4-7.5s0.1-6.1,0.4-7.5c0.4-2.3,1.4-4.2,2.9-5.7c2.4-2.4,5.4-3.6,8.9-3.6
			c3.2,0,5.9,0.9,8,2.7c2.2,1.8,3.5,4.4,4.1,7.7l-6.5,0c-0.8-3.1-2.6-4.7-5.5-4.7c-1.9,0-3.4,0.7-4.5,2.2c-0.8,1.2-1.3,4.1-1.3,8.8
			c0,2.6,0,4.2,0.1,4.8c0.2,2.1,0.7,3.6,1.5,4.5c1,1.1,2.4,1.7,4.1,1.7c2.9,0,4.8-1.6,5.6-4.7L362.8,147.8z"/>
		<path class="st1" d="M394.5,141.5c0-2.5,0-4.1-0.1-4.8c-0.2-2-0.7-3.5-1.5-4.4c-1-1.2-2.4-1.8-4.1-1.8c-1.7,0-3.1,0.6-4.2,1.8
			c-0.8,0.9-1.3,2.4-1.5,4.4c-0.1,0.6-0.1,2.2-0.1,4.8c0,2.7,0,4.3,0.1,4.8c0.2,2,0.7,3.5,1.5,4.4c1,1.2,2.4,1.8,4.2,1.8
			c1.9,0,3.4-0.7,4.5-2.2C394.1,149.2,394.5,146.2,394.5,141.5 M400.9,141.5c0,3.6-0.1,6.1-0.4,7.5c-0.4,2.3-1.4,4.2-2.9,5.7
			c-2.4,2.4-5.4,3.6-8.9,3.6c-3.6,0-6.5-1.2-8.9-3.6c-1.5-1.5-2.4-3.4-2.9-5.7c-0.2-1.4-0.4-3.8-0.4-7.5c0-3.6,0.1-6.1,0.4-7.5
			c0.4-2.3,1.4-4.2,2.9-5.7c2.4-2.4,5.4-3.6,8.9-3.6c3.5,0,6.5,1.2,8.9,3.6c1.5,1.5,2.5,3.4,2.9,5.7
			C400.8,135.4,400.9,137.9,400.9,141.5"/>
		<polygon class="st1" points="439.6,125.1 431.1,142.9 422.5,125.1 416.2,125 416.2,158 422.6,158 422.6,138.8 429,151.3 
			433.3,151.3 439.6,138.8 439.6,158 446,158 446.1,125.1 		"/>
		<polygon class="st1" points="485.8,125.1 477.3,142.9 468.7,125.1 462.4,125.1 462.3,158 468.8,158 468.8,138.8 475.1,151.3 
			479.5,151.3 485.8,138.9 485.8,158.1 492.2,158.1 492.2,125.1 		"/>
		<polygon class="st1" points="508.5,125.1 508.5,158.1 530.2,158.1 530.2,152.4 514.9,152.3 514.9,144.3 528,144.4 528,138.6 
			515,138.6 515,130.9 530.2,130.9 530.2,125.2 		"/>
		<g>
			<path class="st1" d="M562.5,135.2c0-1.3-0.4-2.3-1.3-3.1c-0.9-0.8-2-1.2-3.4-1.2l-6.1,0l0,8.7l6.1,0c1.4,0,2.5-0.4,3.4-1.2
				C562,137.6,562.5,136.5,562.5,135.2 M570.2,158.1l-7.5,0l-6.4-13.1l-4.6,0l0,13.1l-6.4,0l0-32.9l12.9,0c3.3,0,5.9,1,7.9,3
				c1.9,1.9,2.8,4.3,2.8,7.1c0,2.2-0.6,4.1-1.8,5.7c-1.1,1.4-2.5,2.4-4.2,3L570.2,158.1z"/>
			<path class="st1" d="M607.5,148c-0.6,3.4-2,6-4.2,7.8c-2.1,1.8-4.8,2.6-7.9,2.6c-3.5,0-6.5-1.2-8.9-3.6c-1.5-1.5-2.4-3.4-2.9-5.7
				c-0.2-1.4-0.4-3.8-0.4-7.5s0.1-6.1,0.4-7.5c0.4-2.3,1.4-4.2,2.9-5.7c2.4-2.4,5.4-3.6,8.9-3.6c3.2,0,5.9,0.9,8,2.7
				c2.2,1.8,3.5,4.4,4.1,7.7l-6.5,0c-0.8-3.1-2.6-4.7-5.5-4.7c-1.9,0-3.4,0.7-4.5,2.2c-0.8,1.2-1.2,4.1-1.3,8.8c0,2.6,0,4.2,0.1,4.8
				c0.2,2.1,0.7,3.6,1.5,4.5c1,1.1,2.4,1.7,4.1,1.7c2.9,0,4.8-1.6,5.6-4.7L607.5,148z"/>
		</g>
		<polygon class="st1" points="621.9,125.2 621.9,158.2 643.6,158.2 643.6,152.5 628.3,152.4 628.3,144.4 641.3,144.5 641.3,138.7 
			628.3,138.7 628.3,131 643.6,131 643.6,125.3 		"/>
	</g>
	<g>
		<path d="M236.8,91.9c1.2,2.7,3.2,4.6,5.7,5.9c2.6,1.2,6.2,1.9,10.8,1.9l3.6,0l0.7-12c-2.2,0-3.6-0.5-4.3-1.4
			c-0.7-0.9-1.1-2.9-1.1-5.8l0-25.9c0-7.1-2.1-12.6-6.3-16.4c-4.2-3.8-10.9-5.7-20.2-5.7c-9.2,0-16.1,1.8-20.6,5.5
			c-4.5,3.7-6.7,8.7-6.7,15.3l0,2l16,0l0-2.5c0-2.8,0.8-4.9,2.2-6.4c1.5-1.5,4.2-2.2,8.2-2.2c7,0,10.6,2.5,10.6,7.5
			c0,2.4-1.1,4.4-3.4,5.7c-2.3,1.4-6.2,2.9-11.9,4.7c-9.3,2.8-15.5,5.8-18.8,8.8c-3.3,3.1-4.9,7.2-4.9,12.3c0,5.1,1.8,9.3,5.4,12.6
			c3.6,3.3,8,4.9,13.2,4.9c5.2,0,9.6-0.8,13.3-2.4C232,96.4,234.8,94.3,236.8,91.9 M215.4,76.1c1.3-1.5,4.4-3.2,9.5-5
			c5-1.8,8.6-3.5,10.6-5.1l0,16.3c-1.5,2.2-3.5,3.8-6,5c-2.5,1.2-5,1.8-7.3,1.8c-5.8,0-8.7-2.6-8.7-7.9
			C213.4,79.3,214,77.6,215.4,76.1"/>
		<path d="M310.3,95c4.2-3.7,6.3-8.3,6.3-13.8c0-5.5-1.1-9.8-3.4-12.9c-2.3-3.1-6.2-5.5-11.7-7.2l-13.9-4.3
			c-3.1-0.9-4.6-2.7-4.6-5.4c0-2.7,0.7-4.6,2.2-5.7c1.5-1.1,3.8-1.7,7-1.7c3.2,0,4.6-0.1,18.7,0.9l0.1-10.6
			c-2.3-0.6-10.1-1.9-18.5-1.9c-17.1,0-25.7,6.1-25.8,18.3l0,0.5c0,4.4,1,8.2,3.2,11.3c2.1,3.1,5.7,5.4,10.7,7l14.8,4.5
			c3.8,1.2,5.7,3.4,5.7,6.7c0,0.5,0,1-0.1,1.6c-0.7,4.6-3.7,6.9-9,6.9c-6.9,0-14.3-0.8-22.1-4.1l-3.4,11.2
			c6.9,3.4,15.6,4.3,26.2,4.3C300.2,100.5,306.1,98.7,310.3,95"/>
		<path d="M359.6,99.9l0.6-12.3l-2,0c-5.6,0-9.4-0.7-11.4-2.1c-2-1.4-3-4.2-3-8.2l0-32.9l16,0l0-10.5l-16,0l0-27.9l-16.6,6.9
			l-0.1,65.6c0,8.3,1.8,13.9,6.2,17c4.4,3,11.7,4.5,22,4.5L359.6,99.9z"/>
		<path d="M390.2,87.1c-2-1.4-3-3.7-3-6.9l0-27.2c0-5.9,4-8.9,12.1-8.9c4,0,7,0.7,9.1,2.1c2,1.4,3.1,3.7,3.1,6.9l0,27.2
			c0,6-4,8.9-12.1,8.9C395.3,89.1,392.2,88.4,390.2,87.1 M413.1,99.2c10.3-2.6,15.4-9.2,15.4-19.7l0-25.7c0-6.6-2.6-11.8-7.7-15.6
			c-5.1-3.7-12.3-5.6-21.5-5.6c-9.2,0-16.3,1.8-21.4,5.6c-5.1,3.7-7.7,8.9-7.7,15.6l0,25.7c0,14.1,9.7,21.2,29.1,21.2
			C404.6,100.6,409.2,100.2,413.1,99.2"/>
		<path d="M483.9,99.3l16,0L500,34l-17,0l0,44c0,3.4-1.4,5.9-4,7.6c-2.7,1.7-5.7,2.6-9,2.6c-3.3,0-6.1-0.8-8.4-2.3
			c-2.3-1.5-3.4-3.9-3.4-7l0-44.9l-17,0l0,47.6c0,5.5,1.9,10.1,5.8,13.7c3.9,3.6,9.2,5.4,15.9,5.4c4.7,0,8.9-0.8,12.8-2.3
			c3.8-1.5,6.4-3.6,7.8-6.3L483.9,99.3z"/>
		<path d="M555.4,99.4l17,0l0-46.8c0-5.7-1.7-10.5-5.2-14.3c-3.5-3.8-9-5.7-16.7-5.7c-7.6,0-14.3,2.4-20,7.3l0-5.8l-17,0l-0.1,65.3
			l17,0l0-44.7c0-3,1.3-5.3,4-7.1c2.7-1.7,5.7-2.6,9.1-2.6c7.9,0,11.8,2.8,11.8,8.5L555.4,99.4z"/>
		<path d="M630.3,95.6l1.8,3.8l11.5,0l0.1-99.1l-17,6.9l0,27.8c-4.3-1.5-8.5-2.3-12.5-2.3c-9.4,0-16.4,1.9-21,5.7
			c-4.6,3.8-6.9,8.9-6.9,15.2l0,26.1c0,6.7,2.2,11.9,6.7,15.6c4.4,3.7,11.1,5.5,20,5.5C619.4,100.8,625.2,99.1,630.3,95.6 M603.3,80
			l0-26.7c0-3.2,1-5.5,3.1-6.9c2.1-1.4,5.2-2.1,9.3-2.1c4.1,0,7.7,0.8,11,2.3l0,40.1c-3,1.7-6.7,2.6-11,2.6c-4.3,0-7.5-0.7-9.4-2.2
			C604.2,85.6,603.3,83.2,603.3,80"/>
		<g>
			<path d="M659.1,15.1c-4.3,0-7.7-3.4-7.7-7.8s3.4-7.8,7.8-7.8c4.3,0,7.8,3.4,7.8,7.6C666.9,11.6,663.5,15.1,659.1,15.1z
				 M659.1,0.5c-3.7,0-6.7,3-6.7,6.8c0,3.7,3,6.7,6.7,6.7c3.7,0,6.7-3,6.7-6.6C665.8,3.5,662.9,0.5,659.1,0.5z M659,3
				c0.7,0,1.5,0,2.1,0.4c0.7,0.4,1.1,1.3,1.1,2.3c0,1.1-0.4,1.8-1.4,2.3l1.5,3.5h-1.9l-1.2-3.2H658v3.2h-1.8V3H659z M658,6.8h1.1
				c0.9,0,1.3-0.3,1.3-1.1c0-0.7-0.4-1.1-1.3-1.1H658V6.8z"/>
		</g>
	</g>
</g>
</svg>
