<?xml version="1.0" encoding="UTF-8"?>
<svg width="68px" height="68px" viewBox="0 0 68 68" version="1.1" xmlns="http://www.w3.org/2000/svg" xmlns:xlink="http://www.w3.org/1999/xlink">
    <!-- Generator: Sketch 49.1 (51147) - http://www.bohemiancoding.com/sketch -->
    <title>Group</title>
    <desc>Created with Sketch.</desc>
    <defs>
        <polygon id="path-1" points="26 0 0 9.29673591 9.79821958 14.6973294 2.08308605 22.3738872 3.58753709 23.8783383 11.264095 16.2017804 16.6646884 26"></polygon>
        <filter x="-38.5%" y="-30.8%" width="176.9%" height="176.9%" filterUnits="objectBoundingBox" id="filter-2">
            <feOffset dx="0" dy="2" in="SourceAlpha" result="shadowOffsetOuter1"></feOffset>
            <feGaussianBlur stdDeviation="3" in="shadowOffsetOuter1" result="shadowBlurOuter1"></feGaussianBlur>
            <feColorMatrix values="0 0 0 0 0.0941176471   0 0 0 0 0.435294118   0 0 0 0 0.941176471  0 0 0 0.7 0" type="matrix" in="shadowBlurOuter1"></feColorMatrix>
        </filter>
    </defs>
    <g id="Page-1" stroke="none" stroke-width="1" fill="none" fill-rule="evenodd">
        <g id="*-Переваги-участі-/-Як-приєднатись-Copy" transform="translate(-80.000000, -476.000000)">
            <g id="Group-4" transform="translate(80.000000, 476.000000)">
                <g id="Group">
                    <rect id="Rectangle-36" fill="#FFFFFF" x="0" y="0" width="68" height="68"></rect>
                    <g id="noun_1192997_cc" transform="translate(22.000000, 26.000000)" fill-rule="nonzero">
                        <g id="Shape" transform="translate(13.000000, 13.000000) scale(-1, 1) translate(-13.000000, -13.000000) ">
                            <use fill="black" fill-opacity="1" filter="url(#filter-2)" xlink:href="#path-1"></use>
                            <use fill="#186FF0" fill-rule="evenodd" xlink:href="#path-1"></use>
                        </g>
                    </g>
                    <path d="M0,0 L68,0 L68,13 L0,13 L0,0 Z M51.5,4 C50.1192881,4 49,5.11928813 49,6.5 C49,7.88071187 50.1192881,9 51.5,9 C52.8807119,9 54,7.88071187 54,6.5 C54,5.11928813 52.8807119,4 51.5,4 Z M43.5,4 C42.1192881,4 41,5.11928813 41,6.5 C41,7.88071187 42.1192881,9 43.5,9 C44.8807119,9 46,7.88071187 46,6.5 C46,5.11928813 44.8807119,4 43.5,4 Z M59.5,4 C58.1192881,4 57,5.11928813 57,6.5 C57,7.88071187 58.1192881,9 59.5,9 C60.8807119,9 62,7.88071187 62,6.5 C62,5.11928813 60.8807119,4 59.5,4 Z" id="Combined-Shape" fill="#E5E8EB"></path>
                </g>
            </g>
        </g>
    </g>
</svg>