<?xml version="1.0" encoding="UTF-8"?>
<svg width="68px" height="68px" viewBox="0 0 68 68" version="1.1" xmlns="http://www.w3.org/2000/svg" xmlns:xlink="http://www.w3.org/1999/xlink">
    <!-- Generator: Sketch 49.1 (51147) - http://www.bohemiancoding.com/sketch -->
    <title>Group 7</title>
    <desc>Created with Sketch.</desc>
    <defs>
        <path d="M24.3492498,10.7256142 C24.4864599,5.31053527 18.8991299,0.918333516 12.1744414,0.918333516 C5.45011987,0.918333516 0,5.309248 0,10.7256142 C0,12.5218974 0.600228617,14.205546 1.64732671,15.6529188 C2.36642701,16.647185 3.82884221,17.8160899 3.82884221,17.8160899 C4.1355605,18.0619048 4.35312503,18.5814181 4.31240047,18.9717868 C4.31240047,18.9717868 4.1414307,20.6048049 3.84058262,21.6742831 C3.32767332,23.4966154 3.10460548,23.9570597 3.10460548,23.9570597 C2.84778394,24.4875796 3.08699486,24.7458687 3.63549228,24.531973 C3.63549228,24.531973 4.4631914,24.2091117 6.51519547,22.9804041 C7.69620764,22.2734111 9.42828545,20.8377787 9.42828545,20.8377787 C9.73060109,20.5868274 10.2978098,20.4158576 10.6881785,20.4558484 C10.6881785,20.4558484 24.0930224,20.8377787 24.3492498,10.7256142 Z" id="path-1"></path>
        <filter x="-41.1%" y="-33.8%" width="182.1%" height="184.4%" filterUnits="objectBoundingBox" id="filter-2">
            <feOffset dx="0" dy="2" in="SourceAlpha" result="shadowOffsetOuter1"></feOffset>
            <feGaussianBlur stdDeviation="3" in="shadowOffsetOuter1" result="shadowBlurOuter1"></feGaussianBlur>
            <feColorMatrix values="0 0 0 0 0.0941176471   0 0 0 0 0.435294118   0 0 0 0 0.941176471  0 0 0 0.7 0" type="matrix" in="shadowBlurOuter1"></feColorMatrix>
        </filter>
    </defs>
    <g id="Page-1" stroke="none" stroke-width="1" fill="none" fill-rule="evenodd">
        <g id="*-Переваги-участі-/-Як-приєднатись-Copy" transform="translate(-80.000000, -982.000000)">
            <g id="Group-7" transform="translate(80.000000, 982.000000)">
                <rect id="Rectangle-36-Copy-7" fill="#FFFFFF" x="0" y="0" width="68" height="68"></rect>
                <g id="noun_445266_cc-copy" transform="translate(41.000000, 40.500000) scale(-1, 1) translate(-41.000000, -40.500000) translate(24.000000, 24.000000)" fill="#EDEFF1" fill-rule="nonzero">
                    <path d="M33.9965451,13.6621534 C34.1881186,6.11861089 26.3870603,0 16.9980164,0 C7.60948479,1.36183792e-15 0,6.11681763 0,13.6621534 C0,16.1644879 0.838042216,18.5099154 2.30000584,20.5261959 C3.30401729,21.9112708 5.34584875,23.5396281 5.34584875,23.5396281 C5.77409038,23.8820636 6.07785507,24.605778 6.02099523,25.149586 C6.02099523,25.149586 5.78228639,27.424482 5.36224078,28.9143319 C4.64611424,31.4529543 4.33466579,32.0943819 4.33466579,32.0943819 C3.97609027,32.8334292 4.31007775,33.193242 5.07589261,32.8952721 C5.07589261,32.8952721 6.23153029,32.4455061 9.09654869,30.7338398 C10.7454838,29.7489544 13.1638196,27.749029 13.1638196,27.749029 C13.5859142,27.3994382 14.3778539,27.1612666 14.9228886,27.2169763 C14.9228886,27.2169763 33.6387991,27.749029 33.9965451,13.6621534 Z" id="Shape"></path>
                </g>
                <g id="noun_445266_cc" transform="translate(15.000000, 16.000000)" fill-rule="nonzero">
                    <g id="Shape">
                        <use fill="black" fill-opacity="1" filter="url(#filter-2)" xlink:href="#path-1"></use>
                        <use fill="#186FF0" fill-rule="evenodd" xlink:href="#path-1"></use>
                    </g>
                </g>
            </g>
        </g>
    </g>
</svg>