<?xml version="1.0" encoding="UTF-8"?>
<svg width="68px" height="68px" viewBox="0 0 68 68" version="1.1" xmlns="http://www.w3.org/2000/svg" xmlns:xlink="http://www.w3.org/1999/xlink">
    <!-- Generator: Sketch 49.1 (51147) - http://www.bohemiancoding.com/sketch -->
    <title>Group 8</title>
    <desc>Created with Sketch.</desc>
    <defs>
        <path d="M12.9230769,28.9612228 L15.688643,28.97119 C15.688643,28.7719641 15.688643,28.4044039 15.688643,27.8056137 C15.688643,25.9338039 16.141871,24.2254064 17.0498202,22.143722 C17.2127902,21.7700755 17.3892719,21.3853779 17.609234,20.9202925 C17.7303763,20.6641506 18.1462089,19.7955352 18.1786499,19.727418 C19.711194,16.5094948 20.3076923,14.5967473 20.3076923,12.0431001 C20.3076923,7.43840899 16.5882118,3.70556928 12,3.70556928 C7.41178823,3.70556928 3.69230769,7.43840899 3.69230769,12.0431001 C3.69230769,14.8840363 4.30592046,16.8853682 5.8033473,19.8918173 C5.9129926,20.111957 6.30158913,20.8832989 6.37444737,21.0290687 C6.60213749,21.4846155 6.77652488,21.8435742 6.93932749,22.1961375 C7.85275543,24.174246 8.30400992,25.8059604 8.30400992,27.6628101 C8.30400992,28.2643096 8.30400992,28.6168535 8.30400992,28.9445755 L11.0769231,28.9545692 L11.0769231,15.7486694 L12.9230769,15.7486694 L12.9230769,28.9612228 Z M19.3760991,29.6445542 L19.3846154,29.6445542 L19.3846154,31.5019274 L15.7239574,38 L8.33769956,38 L4.61538462,31.5019274 L4.61538462,29.6458176 L4.61170222,29.6364224 L4.61170222,27.6628101 C4.61170222,26.4254665 4.29654831,25.2858852 3.58927325,23.7542189 C3.44513411,23.442073 3.28613118,23.1147816 3.07407825,22.6905206 C3.00520421,22.5527222 2.61502585,21.7782404 2.50066262,21.5486283 C0.76988112,18.0736629 0,15.5626532 0,12.0431001 C0,5.39187959 5.372583,0 12,0 C18.627417,0 24,5.39187959 24,12.0431001 C24,15.2784367 23.2604339,17.6499492 21.5099931,21.3253959 C21.4742095,21.4005316 21.0615318,22.2625569 20.9448666,22.5092324 C20.7397202,22.9429917 20.5780511,23.2954004 20.4322724,23.6296318 C19.7109189,25.2835023 19.3809506,26.5272845 19.3809506,27.8056137 L19.3809506,29.6301637 L19.3760991,29.6445542 Z" id="path-1"></path>
        <filter x="-41.7%" y="-21.1%" width="183.3%" height="152.6%" filterUnits="objectBoundingBox" id="filter-2">
            <feOffset dx="0" dy="2" in="SourceAlpha" result="shadowOffsetOuter1"></feOffset>
            <feGaussianBlur stdDeviation="3" in="shadowOffsetOuter1" result="shadowBlurOuter1"></feGaussianBlur>
            <feColorMatrix values="0 0 0 0 0.0941176471   0 0 0 0 0.435294118   0 0 0 0 0.941176471  0 0 0 0.7 0" type="matrix" in="shadowBlurOuter1"></feColorMatrix>
        </filter>
    </defs>
    <g id="Page-1" stroke="none" stroke-width="1" fill="none" fill-rule="evenodd">
        <g id="*-Переваги-участі-/-Як-приєднатись-Copy" transform="translate(-665.000000, -630.000000)">
            <g id="Group-8" transform="translate(665.000000, 630.000000)">
                <rect id="Rectangle-36-Copy-2" fill="#FFFFFF" x="0" y="0" width="68" height="68"></rect>
                <rect id="Rectangle-5" fill="#EDEFF1" x="12" y="9" width="44" height="44" rx="22"></rect>
                <g id="Group-9" transform="translate(22.000000, 20.000000)">
                    <path d="M12.5262564,3 L12.5262564,3 C17.7365518,3 21.9603309,7.22377902 21.9603309,12.4340745 C21.9603309,13.1831733 21.8711103,13.9296062 21.6945544,14.6576014 L18.6771619,27.0992561 C17.9797244,29.9750091 15.4049241,32 12.445807,32 L12.445807,32 C9.49011689,32 6.92173039,29.9691256 6.24018079,27.0930877 L3.29675634,14.6722745 C2.08881989,9.57496234 5.24178183,4.46354846 10.3390939,3.255612 C11.0557516,3.08578194 11.7897508,3 12.5262564,3 Z" id="Rectangle-6" fill="#FFFFFF"></path>
                    <g id="Combined-Shape" fill-rule="nonzero">
                        <use fill="black" fill-opacity="1" filter="url(#filter-2)" xlink:href="#path-1"></use>
                        <use fill="#186FF0" fill-rule="evenodd" xlink:href="#path-1"></use>
                    </g>
                </g>
            </g>
        </g>
    </g>
</svg>