<?xml version="1.0" encoding="UTF-8"?>
<svg width="68px" height="68px" viewBox="0 0 68 68" version="1.1" xmlns="http://www.w3.org/2000/svg" xmlns:xlink="http://www.w3.org/1999/xlink">
    <!-- Generator: Sketch 49.1 (51147) - http://www.bohemiancoding.com/sketch -->
    <title>Group 11</title>
    <desc>Created with Sketch.</desc>
    <defs>
        <path d="M14.4179295,1.37684246 C14.0521749,1.16101684 13.6629498,0.970564878 13.250254,0.805486566 C11.9212012,0.268495522 10.5250245,0 9.06172387,0 C8.13541432,0 7.20910477,0.127535373 6.28279522,0.382606119 C5.36991044,0.624252089 4.53757432,1.00014582 3.78578686,1.51028731 C3.04742418,2.0204288 2.45002164,2.66481806 1.99357925,3.44345507 C1.53713686,4.22209209 1.30891567,5.13497686 1.30891567,6.1821094 C1.30891567,8.04815328 2.06741552,9.47117954 3.58441522,10.4511882 L2.23522522,11.3170863 L1.10754403,12.5051789 C0.771924626,12.9481966 0.503429104,13.4516257 0.302057462,14.0154663 C0.100685821,14.5793069 0,15.1968466 0,15.8680854 C0,16.7406958 0.167809701,17.4857709 0.503429104,18.1033106 C0.839048507,18.7342751 1.26864134,19.2779785 1.79220761,19.7344209 C2.32919865,20.1908633 2.94673836,20.5868942 3.64482671,20.9225136 L8.15555149,22.7549955 L9.90748477,23.6410307 C10.3907767,23.9498006 10.7465333,24.2988448 10.9747545,24.6881633 C11.2164004,25.0774818 11.3372234,25.5406365 11.3372234,26.0776276 C11.3372234,26.5206452 11.2231128,26.9166761 10.9948916,27.2657203 C10.7666704,27.6013397 10.4780378,27.8765476 10.1289936,28.091344 L8.98117522,28.5947731 L7.77294537,28.7357333 C6.84663581,28.7357333 5.94046343,28.5142245 5.0544282,28.0712068 C4.40041973,27.7885492 3.89189909,27.5254097 3.52886627,27.2817882 L3.52886866,27.2817847 C2.8204902,26.8064111 1.90193525,26.7805742 1.16795552,27.2153774 L1.16795552,27.2153774 C0.321894314,27.7165767 0.0423285024,28.8087471 0.543527805,29.6548083 C0.619438426,29.782951 0.711127176,29.9010629 0.816445752,30.0063766 C1.00389297,30.1938822 1.16806079,30.3436727 1.30891567,30.4557817 C1.9667297,30.979348 2.34933582,31.1656177 3.10112328,31.5146619 C3.85291074,31.8502813 4.63154776,32.1120644 5.43703432,32.3000113 C6.25594567,32.4745334 7.04800746,32.5617944 7.81321969,32.5617944 C8.79322835,32.5617944 9.76652462,32.4208343 10.7331085,32.138914 C11.7131172,31.8704185 12.5857276,31.4542504 13.3509398,30.8904098 C14.1295769,30.3265692 14.7605413,29.6217685 15.2438333,28.7760076 C15.7271252,27.9168219 15.9687712,26.9301009 15.9687712,25.8158445 C15.9687712,24.9298092 15.827811,24.1176103 15.5458907,23.3792476 C15.2639704,22.6677345 14.7538289,22.03677 14.0154663,21.4863542 C14.8746519,21.0567613 15.5928774,20.4123721 16.1701428,19.5531864 C16.760833,18.6940007 17.056178,17.7408416 17.056178,16.6937091 C17.056178,15.7673995 16.8682312,14.961913 16.4923374,14.2772494 C16.1164437,13.5925858 15.619727,12.9884709 15.0021873,12.4649046 C14.3980724,11.9413383 13.7134088,11.484896 12.9481966,11.0955775 L7.18896761,8.3166488 C6.75937477,8.00787895 6.41704298,7.67897193 6.16197223,7.32992775 C5.92032626,6.9674588 5.79950328,6.54457835 5.79950328,6.06128641 C5.79950328,5.63169358 5.90690149,5.26922462 6.1216979,4.97387955 C6.32306955,4.65168492 6.58485268,4.39661418 6.90704731,4.20866731 L7.99445417,3.74551253 L9.16240969,3.60455238 C9.95447148,3.60455238 10.7465333,3.8193488 11.5385951,4.24894164 C11.7775251,4.37252615 12.0689583,4.54580348 12.4128946,4.76877361 L12.4129,4.76876531 C13.2871789,5.33555065 14.4285492,5.26746789 15.2292507,4.60076995 L15.2292507,4.60076995 C15.9474899,4.00273369 16.0449335,2.93568165 15.4468973,2.21744251 C15.3983376,2.15912256 15.34591,2.10413512 15.2899693,2.05285256 C14.9605188,1.7508235 14.6698369,1.52548885 14.4179295,1.37684246 Z M6.42375537,12.4246303 L10.8337943,14.478621 L11.8003782,15.1834218 L12.5051789,16.069457 C12.7065506,16.4050764 12.8072364,16.8078197 12.8072364,17.2776869 C12.8072364,17.7744036 12.6595639,18.2644079 12.3642188,18.7476998 C12.0688737,19.217567 11.6728428,19.580036 11.1761261,19.8351067 L6.22238373,17.7207045 L5.25579985,17.0763152 L4.5509991,16.2305543 C4.36305223,15.8815101 4.2690788,15.4854792 4.2690788,15.0424616 C4.2690788,14.3175237 4.48387522,13.7603955 4.91346806,13.371077 C5.34306089,12.9951833 5.84648999,12.679701 6.42375537,12.4246303 Z" id="path-1"></path>
        <filter x="-58.6%" y="-24.6%" width="217.3%" height="161.4%" filterUnits="objectBoundingBox" id="filter-2">
            <feOffset dx="0" dy="2" in="SourceAlpha" result="shadowOffsetOuter1"></feOffset>
            <feGaussianBlur stdDeviation="3" in="shadowOffsetOuter1" result="shadowBlurOuter1"></feGaussianBlur>
            <feColorMatrix values="0 0 0 0 0.0941176471   0 0 0 0 0.435294118   0 0 0 0 0.941176471  0 0 0 0.7 0" type="matrix" in="shadowBlurOuter1"></feColorMatrix>
        </filter>
    </defs>
    <g id="Page-1" stroke="none" stroke-width="1" fill="none" fill-rule="evenodd">
        <g id="*-Переваги-участі-/-Як-приєднатись-Copy" transform="translate(-665.000000, -806.000000)">
            <g id="Group-11" transform="translate(665.000000, 806.000000)">
                <rect id="Rectangle-36-Copy-3" fill="#FFFFFF" x="0" y="0" width="68" height="68"></rect>
                <rect id="Rectangle-45" fill="#EDEFF1" x="16" y="14" width="36" height="40"></rect>
                <g id="noun_379688_cc" transform="translate(26.000000, 12.000000)" fill-rule="nonzero">
                    <g id="Group">
                        <g id="a-link">
                            <g id="a">
                                <g id="Shape">
                                    <use fill="black" fill-opacity="1" filter="url(#filter-2)" xlink:href="#path-1"></use>
                                    <use fill="#186FF0" fill-rule="evenodd" xlink:href="#path-1"></use>
                                </g>
                            </g>
                        </g>
                    </g>
                </g>
            </g>
        </g>
    </g>
</svg>