<?xml version="1.0" encoding="UTF-8"?>
<svg width="68px" height="68px" viewBox="0 0 68 68" version="1.1" xmlns="http://www.w3.org/2000/svg" xmlns:xlink="http://www.w3.org/1999/xlink">
    <!-- Generator: Sketch 49.1 (51147) - http://www.bohemiancoding.com/sketch -->
    <title>Group 6</title>
    <desc>Created with Sketch.</desc>
    <defs>
        <path d="M34,40 C30.1340068,40 27,36.8659932 27,33 C27,29.1340068 30.1340068,26 34,26 C37.8659932,26 41,29.1340068 41,33 C41,36.8659932 37.8659932,40 34,40 Z" id="path-1"></path>
        <filter x="-71.4%" y="-57.1%" width="242.9%" height="242.9%" filterUnits="objectBoundingBox" id="filter-2">
            <feOffset dx="0" dy="2" in="SourceAlpha" result="shadowOffsetOuter1"></feOffset>
            <feGaussianBlur stdDeviation="3" in="shadowOffsetOuter1" result="shadowBlurOuter1"></feGaussianBlur>
            <feColorMatrix values="0 0 0 0 0.0941176471   0 0 0 0 0.435294118   0 0 0 0 0.941176471  0 0 0 0.7 0" type="matrix" in="shadowBlurOuter1"></feColorMatrix>
        </filter>
    </defs>
    <g id="Page-1" stroke="none" stroke-width="1" fill="none" fill-rule="evenodd">
        <g id="*-Переваги-участі-/-Як-приєднатись-Copy" transform="translate(-80.000000, -1158.000000)">
            <g id="Group-6" transform="translate(80.000000, 1158.000000)">
                <rect id="Rectangle-36-Copy-8" fill="#FFFFFF" x="0" y="0" width="68" height="68"></rect>
                <rect id="Rectangle-40" fill="#E5E8EB" transform="translate(33.239474, 31.696482) rotate(-316.000000) translate(-33.239474, -31.696482) " x="10.2394738" y="30.6964823" width="46" height="2"></rect>
                <rect id="Rectangle-40-Copy" fill="#E5E8EB" transform="translate(26.686406, 40.402569) scale(-1, 1) rotate(-316.000000) translate(-26.686406, -40.402569) " x="14.1864059" y="39.4025694" width="25" height="2"></rect>
                <rect id="Rectangle-40-Copy-2" fill="#186FF0" transform="translate(41.686406, 25.402569) scale(-1, 1) rotate(-316.000000) translate(-41.686406, -25.402569) " x="29.1864059" y="24.4025694" width="25" height="2"></rect>
                <g id="Oval-3" fill-rule="nonzero">
                    <use fill="black" fill-opacity="1" filter="url(#filter-2)" xlink:href="#path-1"></use>
                    <use fill="#186FF0" fill-rule="evenodd" xlink:href="#path-1"></use>
                </g>
                <path d="M53,19 C50.2385763,19 48,16.7614237 48,14 C48,11.2385763 50.2385763,9 53,9 C55.7614237,9 58,11.2385763 58,14 C58,16.7614237 55.7614237,19 53,19 Z M53,16.5 C54.3807119,16.5 55.5,15.3807119 55.5,14 C55.5,12.6192881 54.3807119,11.5 53,11.5 C51.6192881,11.5 50.5,12.6192881 50.5,14 C50.5,15.3807119 51.6192881,16.5 53,16.5 Z" id="Oval-3-Copy-4" fill="#186FF0" fill-rule="nonzero"></path>
                <path d="M15,19 C12.2385763,19 10,16.7614237 10,14 C10,11.2385763 12.2385763,9 15,9 C17.7614237,9 20,11.2385763 20,14 C20,16.7614237 17.7614237,19 15,19 Z M15,16.5 C16.3807119,16.5 17.5,15.3807119 17.5,14 C17.5,12.6192881 16.3807119,11.5 15,11.5 C13.6192881,11.5 12.5,12.6192881 12.5,14 C12.5,15.3807119 13.6192881,16.5 15,16.5 Z" id="Oval-3-Copy-7" fill="#E5E8EB" fill-rule="nonzero"></path>
                <path d="M53,56 C50.2385763,56 48,53.7614237 48,51 C48,48.2385763 50.2385763,46 53,46 C55.7614237,46 58,48.2385763 58,51 C58,53.7614237 55.7614237,56 53,56 Z M53,53.5 C54.3807119,53.5 55.5,52.3807119 55.5,51 C55.5,49.6192881 54.3807119,48.5 53,48.5 C51.6192881,48.5 50.5,49.6192881 50.5,51 C50.5,52.3807119 51.6192881,53.5 53,53.5 Z" id="Oval-3-Copy-5" fill="#E5E8EB" fill-rule="nonzero"></path>
                <path d="M15,56 C12.2385763,56 10,53.7614237 10,51 C10,48.2385763 12.2385763,46 15,46 C17.7614237,46 20,48.2385763 20,51 C20,53.7614237 17.7614237,56 15,56 Z M15,53.5 C16.3807119,53.5 17.5,52.3807119 17.5,51 C17.5,49.6192881 16.3807119,48.5 15,48.5 C13.6192881,48.5 12.5,49.6192881 12.5,51 C12.5,52.3807119 13.6192881,53.5 15,53.5 Z" id="Oval-3-Copy-8" fill="#E5E8EB" fill-rule="nonzero"></path>
            </g>
        </g>
    </g>
</svg>