<?xml version="1.0" encoding="UTF-8"?>
<svg width="68px" height="68px" viewBox="0 0 68 68" version="1.1" xmlns="http://www.w3.org/2000/svg" xmlns:xlink="http://www.w3.org/1999/xlink">
    <!-- Generator: Sketch 49.1 (51147) - http://www.bohemiancoding.com/sketch -->
    <title>Group 5</title>
    <desc>Created with Sketch.</desc>
    <defs>
        <path d="M28.2249126,16.7912379 L14.4,16.7912379 L14.4,14.7643177 L28.2249126,14.7643177 L28.2249126,9.77777778 L36.4,15.7777778 L28.2249126,21.7777778 L28.2249126,16.7912379 Z M8.17508736,7.0134601 L8.17508736,12 L1.91846539e-13,6 L8.17508736,-2.91849478e-14 L8.17508736,4.9865399 L22,4.9865399 L22,7.0134601 L8.17508736,7.0134601 Z" id="path-1"></path>
        <filter x="-27.5%" y="-36.7%" width="154.9%" height="191.8%" filterUnits="objectBoundingBox" id="filter-2">
            <feOffset dx="0" dy="2" in="SourceAlpha" result="shadowOffsetOuter1"></feOffset>
            <feGaussianBlur stdDeviation="3" in="shadowOffsetOuter1" result="shadowBlurOuter1"></feGaussianBlur>
            <feColorMatrix values="0 0 0 0 0.0941176471   0 0 0 0 0.435294118   0 0 0 0 0.941176471  0 0 0 0.7 0" type="matrix" in="shadowBlurOuter1"></feColorMatrix>
        </filter>
    </defs>
    <g id="Page-1" stroke="none" stroke-width="1" fill="none" fill-rule="evenodd">
        <g id="*-Переваги-участі-/-Як-приєднатись-Copy" transform="translate(-80.000000, -652.000000)">
            <g id="Group-5" transform="translate(80.000000, 652.000000)">
                <rect id="Rectangle-36-Copy-5" fill="#FFFFFF" x="0" y="0" width="68" height="68"></rect>
                <g id="noun_377751_cc" transform="translate(11.000000, 13.000000)" fill="#EDEFF1" fill-rule="nonzero">
                    <polygon id="Shape" points="20.6938667 4.75158386 16.0816 0 0 0 0.0245333333 38 46 38 46 4.75158386"></polygon>
                </g>
                <g id="Group-2" transform="translate(16.000000, 34.000000)" fill-rule="nonzero">
                    <g id="Combined-Shape">
                        <use fill="black" fill-opacity="1" filter="url(#filter-2)" xlink:href="#path-1"></use>
                        <use fill="#186FF0" fill-rule="evenodd" xlink:href="#path-1"></use>
                    </g>
                </g>
            </g>
        </g>
    </g>
</svg>