<?xml version="1.0" encoding="UTF-8"?>
<svg width="68px" height="68px" viewBox="0 0 68 68" version="1.1" xmlns="http://www.w3.org/2000/svg" xmlns:xlink="http://www.w3.org/1999/xlink">
    <!-- Generator: Sketch 49.1 (51147) - http://www.bohemiancoding.com/sketch -->
    <title>Group 3</title>
    <desc>Created with Sketch.</desc>
    <defs>
        <path d="M20.6182345,22.681931 C20.6182345,19.4069356 23.1290644,16.8597169 26.586004,16.8597169 C30.0429436,16.8597169 32.5537735,19.4069356 32.5537735,22.681931 C32.5537735,25.9569265 30.0429436,28.5041451 26.586004,28.5041451 C23.1290644,28.5041451 20.6182345,25.9569265 20.6182345,22.681931 Z M25.6035054,44.0057902 L22.983509,41.8952376 L42.560704,15.7680518 L45.1807003,17.8422155 L25.6035054,44.0057902 Z M24.329896,22.681931 C24.329896,24.028318 25.1668393,25.0472055 26.586004,25.0472055 C28.0051687,25.0472055 28.842112,24.028318 28.842112,22.681931 C28.842112,21.335544 28.0051687,20.3166565 26.586004,20.3166565 C25.1668393,20.3166565 24.329896,21.335544 24.329896,22.681931 Z M35.3921028,37.0919109 C35.3921028,33.8169155 37.9029327,31.2696968 41.3598723,31.2696968 C44.8168119,31.2696968 47.3276418,33.8169155 47.3276418,37.0919109 C47.3276418,40.3669064 44.8168119,42.914125 41.3598723,42.914125 C37.9029327,42.914125 35.3921028,40.3669064 35.3921028,37.0919109 Z M39.1037643,37.0919109 C39.1037643,38.438298 39.9407076,39.4571854 41.3598723,39.4571854 C42.779037,39.4571854 43.6159803,38.438298 43.6159803,37.0919109 C43.6159803,35.7455239 42.779037,34.7266365 41.3598723,34.7266365 C39.9407076,34.7266365 39.1037643,35.7455239 39.1037643,37.0919109 Z" id="path-1"></path>
        <filter x="-37.4%" y="-28.3%" width="174.9%" height="170.8%" filterUnits="objectBoundingBox" id="filter-2">
            <feOffset dx="0" dy="2" in="SourceAlpha" result="shadowOffsetOuter1"></feOffset>
            <feGaussianBlur stdDeviation="3" in="shadowOffsetOuter1" result="shadowBlurOuter1"></feGaussianBlur>
            <feColorMatrix values="0 0 0 0 0.0941176471   0 0 0 0 0.435294118   0 0 0 0 0.941176471  0 0 0 0.7 0" type="matrix" in="shadowBlurOuter1"></feColorMatrix>
        </filter>
    </defs>
    <g id="Page-1" stroke="none" stroke-width="1" fill="none" fill-rule="evenodd">
        <g id="*-Переваги-участі-/-Як-приєднатись-Copy" transform="translate(-80.000000, -806.000000)">
            <g id="Group-3" transform="translate(80.000000, 806.000000)">
                <rect id="Rectangle-36-Copy-6" fill="#FFFFFF" x="0" y="0" width="68" height="68"></rect>
                <path d="M11,30.9355166 L11,26 L57,26 L57,30.9355166 C54.0365627,32.4082227 52,35.466279 52,39 C52,42.533721 54.0365627,45.5917773 56.9999993,47.06448 L57,52 L11,52 L11,47.0644834 C13.9634373,45.5917773 16,42.533721 16,39 C16,35.466279 13.9634373,32.4082227 11.0000007,30.93552 Z" id="Combined-Shape" fill="#EDEFF1"></path>
                <g id="%">
                    <use fill="black" fill-opacity="1" filter="url(#filter-2)" xlink:href="#path-1"></use>
                    <use fill="#186FF0" fill-rule="evenodd" xlink:href="#path-1"></use>
                </g>
            </g>
        </g>
    </g>
</svg>