<?xml version="1.0" encoding="UTF-8"?>
<svg width="68px" height="68px" viewBox="0 0 68 68" version="1.1" xmlns="http://www.w3.org/2000/svg" xmlns:xlink="http://www.w3.org/1999/xlink">
    <!-- Generator: Sketch 49.1 (51147) - http://www.bohemiancoding.com/sketch -->
    <title>Group 10</title>
    <desc>Created with Sketch.</desc>
    <defs></defs>
    <g id="Page-1" stroke="none" stroke-width="1" fill="none" fill-rule="evenodd">
        <g id="*-Переваги-участі-/-Як-приєднатись-Copy" transform="translate(-665.000000, -476.000000)">
            <g id="Group-10" transform="translate(665.000000, 476.000000)">
                <rect id="Rectangle-36-Copy" fill="#FFFFFF" x="0" y="0" width="68" height="68"></rect>
                <rect id="Rectangle-5" fill="#EDEFF1" x="13" y="13" width="42" height="42" rx="21"></rect>
                <path d="M43.4819645,42.3805681 L53,51.5720282 L51.6210237,52.9999999 L42.0704515,43.7771196 C39.8406673,45.6674893 36.9615435,46.8064859 33.8181472,46.8064859 C26.73888,46.8064859 21,41.0295073 21,33.903243 C21,26.7769787 26.73888,21 33.8181472,21 C40.8974144,21 46.6362944,26.7769787 46.6362944,33.903243 C46.6362944,37.1481039 45.4464354,40.1132135 43.4819645,42.3805681 Z M33.8181472,42.8362573 C38.7191783,42.8362573 42.6922491,38.8368106 42.6922491,33.903243 C42.6922491,28.9696754 38.7191783,24.9702286 33.8181472,24.9702286 C28.917116,24.9702286 24.9440453,28.9696754 24.9440453,33.903243 C24.9440453,38.8368106 28.917116,42.8362573 33.8181472,42.8362573 Z" id="Combined-Shape" fill="#186FF0"></path>
            </g>
        </g>
    </g>
</svg>